<svg width="300" height="300" viewBox="0 0 300 300" xmlns="http://www.w3.org/2000/svg">
  <defs>
    <linearGradient id="g" x1="0%" y1="0%" x2="100%" y2="100%">
      <stop offset="0%" stop-color="#F0E2A0"/>
      <stop offset="50%" stop-color="#C5A028"/>
      <stop offset="100%" stop-color="#8B7620"/>
    </linearGradient>
    <linearGradient id="gv" x1="0%" y1="0%" x2="0%" y2="100%">
      <stop offset="0%" stop-color="#E8D48B"/>
      <stop offset="40%" stop-color="#C5A028"/>
      <stop offset="100%" stop-color="#6B5A18"/>
    </linearGradient>
    <radialGradient id="bg" cx="50%" cy="40%" r="45%">
      <stop offset="0%" stop-color="#1a1a14"/>
      <stop offset="100%" stop-color="#080808"/>
    </radialGradient>
    <filter id="glow">
      <feGaussianBlur stdDeviation="3" result="blur"/>
      <feComposite in="SourceGraphic" in2="blur" operator="over"/>
    </filter>
  </defs>
  <rect width="300" height="300" rx="54" fill="url(#bg)"/>
  <rect x="5" y="5" width="290" height="290" rx="50" fill="none" stroke="url(#g)" stroke-width="1" opacity="0.25"/>
  <rect x="12" y="12" width="276" height="276" rx="43" fill="none" stroke="url(#g)" stroke-width="0.4" opacity="0.15"/>
  <g opacity="0.4">
    <g transform="translate(26,26)">
      <path d="M0,20 Q0,0 20,0" fill="none" stroke="url(#g)" stroke-width="1.3"/>
      <circle cx="4" cy="4" r="2" fill="#C5A028"/>
      <path d="M0,12 Q5,5 12,0" fill="none" stroke="#C5A028" stroke-width="0.6" opacity="0.5"/>
    </g>
    <g transform="translate(274,26) scale(-1,1)">
      <path d="M0,20 Q0,0 20,0" fill="none" stroke="url(#g)" stroke-width="1.3"/>
      <circle cx="4" cy="4" r="2" fill="#C5A028"/>
      <path d="M0,12 Q5,5 12,0" fill="none" stroke="#C5A028" stroke-width="0.6" opacity="0.5"/>
    </g>
    <g transform="translate(26,274) scale(1,-1)">
      <path d="M0,20 Q0,0 20,0" fill="none" stroke="url(#g)" stroke-width="1.3"/>
      <circle cx="4" cy="4" r="2" fill="#C5A028"/>
      <path d="M0,12 Q5,5 12,0" fill="none" stroke="#C5A028" stroke-width="0.6" opacity="0.5"/>
    </g>
    <g transform="translate(274,274) scale(-1,-1)">
      <path d="M0,20 Q0,0 20,0" fill="none" stroke="url(#g)" stroke-width="1.3"/>
      <circle cx="4" cy="4" r="2" fill="#C5A028"/>
      <path d="M0,12 Q5,5 12,0" fill="none" stroke="#C5A028" stroke-width="0.6" opacity="0.5"/>
    </g>
  </g>
  <line x1="60" y1="54" x2="240" y2="54" stroke="url(#g)" stroke-width="0.5" opacity="0.3"/>
  <line x1="70" y1="58" x2="230" y2="58" stroke="url(#g)" stroke-width="0.3" opacity="0.18"/>
  <polygon points="150,51 153,54 150,57 147,54" fill="#C5A028" opacity="0.4"/>
  <g transform="translate(150, 78)" filter="url(#glow)">
    <path d="M-9,0 Q0,-11 9,0" fill="none" stroke="#C5A028" stroke-width="2.2" stroke-linecap="round" opacity="0.9"/>
    <path d="M-18,-4 Q0,-20 18,-4" fill="none" stroke="#C5A028" stroke-width="1.7" stroke-linecap="round" opacity="0.5"/>
    <path d="M-27,-8 Q0,-30 27,-8" fill="none" stroke="#C5A028" stroke-width="1.2" stroke-linecap="round" opacity="0.25"/>
    <circle cx="0" cy="4" r="3.5" fill="url(#g)"/>
  </g>
  <g transform="translate(150, 126)">
    <g opacity="0.25">
      <line x1="-65" y1="-20" x2="65" y2="-20" stroke="#C5A028" stroke-width="0.9"/>
      <line x1="-65" y1="-10" x2="65" y2="-10" stroke="#C5A028" stroke-width="0.9"/>
      <line x1="-65" y1="0" x2="65" y2="0" stroke="#C5A028" stroke-width="0.9"/>
      <line x1="-65" y1="10" x2="65" y2="10" stroke="#C5A028" stroke-width="0.9"/>
      <line x1="-65" y1="20" x2="65" y2="20" stroke="#C5A028" stroke-width="0.9"/>
    </g>
    <g transform="translate(-50, 0)" opacity="0.6">
      <path d="M0,-28 Q10,-28 10,-18 Q10,-8 0,-6 Q-6,-4 -6,2 Q-6,8 0,10 Q6,12 6,18 Q6,26 -2,26 Q-8,26 -8,20"
            fill="none" stroke="url(#g)" stroke-width="2" stroke-linecap="round"/>
      <circle cx="0" cy="0" r="3.5" fill="none" stroke="url(#g)" stroke-width="1.3"/>
    </g>
    <g opacity="0.6">
      <ellipse cx="-15" cy="0" rx="5.5" ry="4" fill="url(#g)" transform="rotate(-15,-15,0)"/>
      <line x1="-10" y1="0" x2="-10" y2="-28" stroke="url(#g)" stroke-width="1.3"/>
      <ellipse cx="10" cy="-10" rx="5.5" ry="4" fill="url(#g)" transform="rotate(-15,10,-10)"/>
      <line x1="15" y1="-10" x2="15" y2="-38" stroke="url(#g)" stroke-width="1.3"/>
      <ellipse cx="35" cy="10" rx="5.5" ry="4" fill="url(#g)" transform="rotate(-15,35,10)"/>
      <line x1="40" y1="10" x2="40" y2="-18" stroke="url(#g)" stroke-width="1.3"/>
      <line x1="-10" y1="-28" x2="15" y2="-38" stroke="url(#g)" stroke-width="2.5"/>
      <path d="M40,-18 Q46,-22 44,-14" fill="none" stroke="url(#g)" stroke-width="1.3"/>
    </g>
  </g>
  <line x1="60" y1="170" x2="240" y2="170" stroke="url(#g)" stroke-width="0.5" opacity="0.3"/>
  <line x1="70" y1="174" x2="230" y2="174" stroke="url(#g)" stroke-width="0.3" opacity="0.18"/>
  <polygon points="150,167 153,170 150,173 147,170" fill="#C5A028" opacity="0.4"/>
  <text x="150" y="206" text-anchor="middle" font-family="'Playfair Display', Georgia, serif"
        font-weight="800" font-size="36" fill="url(#gv)" letter-spacing="2">Mazzika</text>
  <g transform="translate(150, 218)" opacity="0.3">
    <line x1="-38" y1="0" x2="-6" y2="0" stroke="#C5A028" stroke-width="0.5"/>
    <polygon points="0,-2.5 2.5,0 0,2.5 -2.5,0" fill="#C5A028"/>
    <line x1="6" y1="0" x2="38" y2="0" stroke="#C5A028" stroke-width="0.5"/>
  </g>
  <text x="150" y="236" text-anchor="middle" font-family="-apple-system, sans-serif"
        font-weight="300" font-size="11" fill="#C5A028" letter-spacing="7" opacity="0.5">LYRICS</text>
  <g transform="translate(150, 260)" opacity="0.2">
    <path d="M-24,0 Q-12,-5 0,0 Q12,5 24,0" fill="none" stroke="#C5A028" stroke-width="0.8"/>
    <circle cx="0" cy="0" r="1.5" fill="#C5A028"/>
  </g>
</svg>
